<!-- Generated by IcoMoon.io -->
<svg version="1.1" xmlns="http://www.w3.org/2000/svg" width="152" height="32" viewBox="0 0 152 32">
<title>BG_1</title>
<path fill="#3286aa" d="M152.477 18.331l-3.603-2.331c-3.709-2.225-10.914-6.887-18.225-9.854-7.205-3.073-14.517-4.662-21.722-3.815-7.311 0.742-14.623 3.815-21.828 6.040-7.311 2.331-14.517 3.815-21.828 3.815-7.205 0-14.517-1.483-21.828 0.742-7.205 2.331-14.517 8.477-21.722 12.291-7.311 3.815-14.517 5.298-18.225 6.040l-3.603 0.742v-32h3.603c3.709 0 10.914 0 18.225 0 7.205 0 14.517 0 21.722 0 7.311 0 14.623 0 21.828 0 7.311 0 14.517 0 21.828 0 7.205 0 14.517 0 21.828 0 7.205 0 14.517 0 21.722 0 7.311 0 14.517 0 18.225 0h3.603v18.331z"></path>
</svg>
