<!-- Generated by IcoMoon.io -->
<svg version="1.1" xmlns="http://www.w3.org/2000/svg" width="91" height="32" viewBox="0 0 91 32">
<title>BG_5</title>
<path fill="#3286aa" d="M0 0l1.663 3.2c1.663 3.2 5.065 9.6 8.391 11.733 3.402 2.133 6.728 0 10.129 1.6 3.326 1.6 6.728 6.933 10.054 8.533s6.728-0.533 10.054-0.533c3.402 0 6.728 2.133 10.129 1.067 3.326-1.067 6.728-5.333 10.054-4.8s6.728 5.867 10.054 6.933c3.402 1.067 6.728-2.133 10.129-4.8 3.326-2.667 6.728-4.8 8.391-5.867l1.663-1.067v16h-1.663c-1.663 0-5.065 0-8.391 0-3.402 0-6.728 0-10.129 0-3.326 0-6.728 0-10.054 0s-6.728 0-10.054 0c-3.402 0-6.728 0-10.129 0-3.326 0-6.728 0-10.054 0s-6.728 0-10.054 0c-3.402 0-6.728 0-10.129 0-3.326 0-6.728 0-8.391 0h-1.663v-32z"></path>
</svg>
