<!-- Generated by IcoMoon.io -->
<svg version="1.1" xmlns="http://www.w3.org/2000/svg" width="32" height="32" viewBox="0 0 32 32">
<title>ic_googlemaps</title>
<path fill="#fff" d="M26.036 6.399c1.616 3.477 1.249 7.571-0.54 10.897-1.468 2.729-3.659 4.987-5.464 7.485-0.825 1.144-1.659 2.333-2.225 3.636-0.188 0.433-0.351 0.877-0.511 1.323-0.161 0.444-0.299 0.897-0.453 1.344-0.145 0.419-0.315 0.912-0.836 0.916h-0.009c-0.621-0.001-0.772-0.707-0.927-1.183-0.379-1.165-0.775-2.284-1.359-3.367-0.68-1.259-1.527-2.423-2.387-3.561l14.711-17.491zM11.393 10.273l-5.279 6.276c0.965 2.053 2.428 3.817 3.828 5.573 0.329 0.413 0.659 0.829 0.983 1.248l6.645-7.9-0.039 0.013c-2.321 0.801-4.921-0.388-5.856-2.649-0.128-0.307-0.221-0.627-0.279-0.955-0.084-0.583-0.103-1.015-0.005-1.597l0.001-0.009zM7.323 4.199l-0.004 0.005c-2.596 3.288-3.041 7.84-1.489 11.693l6.38-7.585-0.077-0.067-4.809-4.047zM19.548 0.581l-5.117 6.084c0.012-0.005 0.024-0.009 0.036-0.013 2.133-0.735 4.537 0.2 5.627 2.168 0.235 0.425 0.431 0.911 0.503 1.393 0.091 0.595 0.113 1.031 0.016 1.627l-0.004 0.021 5.115-6.081c-1.337-2.438-3.534-4.29-6.163-5.195l-0.012-0.004zM12.621 7.824l6.261-7.444-0.063-0.016c-0.927-0.244-1.881-0.366-2.839-0.364-1.551 0.015-3.083 0.35-4.498 0.984s-2.684 1.555-3.727 2.704l-0.021 0.024 4.887 4.112z"></path>
</svg>
