<!-- Generated by IcoMoon.io -->
<svg version="1.1" xmlns="http://www.w3.org/2000/svg" width="33" height="32" viewBox="0 0 33 32">
<title>ic_logo</title>
<path fill="#fff" d="M16.725 0c-9.040 0-16.374 7.167-16.374 16s7.334 16 16.374 16c9.040 0 16.374-7.167 16.374-16s-7.334-16-16.374-16zM1.368 16c-0.001-1.971 0.396-3.923 1.167-5.744s1.903-3.476 3.329-4.869c1.426-1.394 3.12-2.499 4.983-3.253s3.861-1.141 5.878-1.141c1.756 0 3.426 0.303 4.994 0.824l-8.559 16.756-11.072 1.968c-0.478-1.469-0.72-3-0.72-4.541zM16.725 31.008c-6.818 0-12.604-4.359-14.6-10.364h10.692l9.659 9.269c-1.774 0.691-3.72 1.093-5.751 1.093v0.001zM22.493 29.897c0.554-0.56 0.862-1.308 0.861-2.087 0-0.943-0.448-1.8-1.153-2.339l-6.457-4.828h15.581c-0.698 2.076-1.849 3.979-3.375 5.577s-3.387 2.852-5.458 3.677zM29.535 19.112h-3.684l0.276 0.387h1.255l0.639 0.757h-6.94c0-1.345-1.119-2.456-2.513-2.456-0.136 0-0.276 0.017-0.396 0.033l-2.497 0.371 7.368-11.979c0.293-0.471 0.449-1.009 0.449-1.581 0-1.212-0.689-2.288-1.706-2.793 5.993 2.036 10.298 7.587 10.298 14.149 0 1.48-0.224 2.911-0.637 4.256-0.39-0.023-0.768-0.14-1.102-0.339s-0.611-0.476-0.81-0.805z"></path>
</svg>
