<!-- Generated by IcoMoon.io -->
<svg version="1.1" xmlns="http://www.w3.org/2000/svg" width="32" height="32" viewBox="0 0 32 32">
<title>ic_telegram</title>
<path fill="#fff" d="M16 2.667c-7.36 0-13.333 5.973-13.333 13.333s5.973 13.333 13.333 13.333c7.36 0 13.333-5.973 13.333-13.333s-5.973-13.333-13.333-13.333zM22.187 11.733c-0.2 2.107-1.067 7.227-1.507 9.587-0.187 1-0.56 1.333-0.907 1.373-0.773 0.067-1.36-0.507-2.107-1-1.173-0.773-1.84-1.253-2.973-2-1.32-0.867-0.467-1.347 0.293-2.12 0.2-0.2 3.613-3.307 3.68-3.587 0.009-0.042 0.008-0.086-0.004-0.128s-0.033-0.080-0.063-0.112c-0.080-0.067-0.187-0.040-0.28-0.027-0.12 0.027-1.987 1.267-5.627 3.72-0.533 0.36-1.013 0.547-1.44 0.533-0.48-0.013-1.387-0.267-2.067-0.493-0.84-0.267-1.493-0.413-1.44-0.88 0.027-0.24 0.36-0.48 0.987-0.733 3.893-1.693 6.48-2.813 7.773-3.347 3.707-1.547 4.467-1.813 4.973-1.813 0.107 0 0.36 0.027 0.52 0.16 0.133 0.107 0.173 0.253 0.187 0.36-0.013 0.080 0.013 0.32 0 0.507z"></path>
</svg>
