<svg xmlns="http://www.w3.org/2000/svg" aria-hidden="true" style="position:absolute;width:0;height:0;overflow:hidden"><defs><symbol id="icon-ic_email" viewBox="0 0 32 32"><path fill="#fff" d="M26.667 5.333H5.334A2.663 2.663 0 0 0 2.681 8l-.013 16c0 1.467 1.2 2.667 2.667 2.667h21.333c1.467 0 2.667-1.2 2.667-2.667V8c0-1.467-1.2-2.667-2.667-2.667zm0 5.334L16 17.334 5.333 10.667V8L16 14.667 26.667 8v2.667z" style="fill:var(--color1, #fff)"/></symbol><symbol id="icon-ic_telegram" viewBox="0 0 32 32"><path fill="#fff" d="M16 2.667C8.64 2.667 2.667 8.64 2.667 16S8.64 29.333 16 29.333 29.333 23.36 29.333 16 23.36 2.667 16 2.667zm6.187 9.066c-.2 2.107-1.067 7.227-1.507 9.587-.187 1-.56 1.333-.907 1.373-.773.067-1.36-.507-2.107-1-1.173-.773-1.84-1.253-2.973-2-1.32-.867-.467-1.347.293-2.12.2-.2 3.613-3.307 3.68-3.587a.264.264 0 0 0-.067-.24c-.08-.067-.187-.04-.28-.027-.12.027-1.987 1.267-5.627 3.72-.533.36-1.013.547-1.44.533-.48-.013-1.387-.267-2.067-.493-.84-.267-1.493-.413-1.44-.88.027-.24.36-.48.987-.733 3.893-1.693 6.48-2.813 7.773-3.347 3.707-1.547 4.467-1.813 4.973-1.813.107 0 .36.027.52.16a.534.534 0 0 1 .187.36c-.013.08.013.32 0 .507z" style="fill:var(--color1, #fff)"/></symbol><symbol id="icon-icon_outline_ticket" viewBox="0 0 32 32"><path stroke-linecap="round" stroke-linejoin="round" stroke-width="2.064" d="M6 10.667 22.667 4l2.667 6.667m-22.667 0h26.667v4c-2 0-4 1.333-4 3.667s2 4.333 4 4.333v4H2.667v-4c2 0 4-1.333 4-4s-2-4-4-4v-4z"/><path stroke-linecap="round" stroke-width="2.064" d="M11.333 16.923h4m-4 4h9.333"/></symbol><symbol id="icon-ic_googlemaps" viewBox="0 0 32 32"><path fill="#fff" d="M26.036 6.399c1.616 3.477 1.249 7.571-.54 10.897-1.468 2.729-3.659 4.987-5.464 7.485-.825 1.144-1.659 2.333-2.225 3.636-.188.433-.351.877-.511 1.323-.161.444-.299.897-.453 1.344-.145.419-.315.912-.836.916h-.009c-.621-.001-.772-.707-.927-1.183-.379-1.165-.775-2.284-1.359-3.367-.68-1.259-1.527-2.423-2.387-3.561L26.036 6.398zm-14.643 3.874-5.279 6.276c.965 2.053 2.428 3.817 3.828 5.573.329.413.659.829.983 1.248l6.645-7.9-.039.013c-2.321.801-4.921-.388-5.856-2.649a4.529 4.529 0 0 1-.279-.955c-.084-.583-.103-1.015-.005-1.597l.001-.009zm-4.07-6.074-.004.005c-2.596 3.288-3.041 7.84-1.489 11.693l6.38-7.585-.077-.067-4.809-4.047zM19.548.581l-5.117 6.084.036-.013c2.133-.735 4.537.2 5.627 2.168.235.425.431.911.503 1.393.091.595.113 1.031.016 1.627l-.004.021 5.115-6.081A11.178 11.178 0 0 0 19.561.585l-.012-.004zm-6.927 7.243L18.882.38l-.063-.016A11.06 11.06 0 0 0 15.98 0a11.244 11.244 0 0 0-8.225 3.688l-.021.024 4.887 4.112z" style="fill:var(--color1, #fff)"/></symbol><symbol id="icon-ic_mobile" viewBox="0 0 32 32"><path fill="#fff" d="M5.333 1.333h21.333v29.333H5.333V1.333zM8 4v24h16V4H8zm6.667 18.667h2.672v2.672h-2.672v-2.672z" style="fill:var(--color1, #fff)"/></symbol><symbol id="icon-ic_user" viewBox="0 0 32 32"><path d="M16 0a8 8 0 1 1 0 16 8 8 0 0 1 0-16zm0 20c8.84 0 16 3.58 16 8v4H0v-4c0-4.42 7.16-8 16-8z"/></symbol><symbol id="icon-ic_facebook" viewBox="0 0 32 32"><path fill="#fff" d="M32 16.04C32 7.186 24.832 0 16 0S0 7.186 0 16.04c0 7.763 5.504 14.228 12.8 15.719V20.852H9.6V16.04h3.2v-4.01c0-3.096 2.512-5.614 5.6-5.614h4v4.812h-3.2c-.88 0-1.6.722-1.6 1.604v3.208h4.8v4.812h-4.8V32c8.08-.802 14.4-7.635 14.4-15.96z" style="fill:var(--color1, #fff)"/></symbol><symbol id="icon-ic_arrow_swap" viewBox="0 0 32 32"><path fill="#fff" d="m0 22.944 7.661-9.055v6.64H32v4.83H7.661v6.64L0 22.943zm24.339-11.472H0V6.64h24.339V0L32 9.055l-7.661 9.055v-6.637z" style="fill:var(--color1, #fff)"/></symbol><symbol id="icon-ic_arrow_right" viewBox="0 0 55 32"><path d="M0 22.122V9.877h27.765V-.001l27.21 16-27.21 16v-9.878H0z"/></symbol><symbol id="icon-BG_1" viewBox="0 0 152 32"><path fill="#3286aa" d="M152.477 18.331 148.874 16c-3.709-2.225-10.914-6.887-18.225-9.854-7.205-3.073-14.517-4.662-21.722-3.815-7.311.742-14.623 3.815-21.828 6.04-7.311 2.331-14.517 3.815-21.828 3.815-7.205 0-14.517-1.483-21.828.742-7.205 2.331-14.517 8.477-21.722 12.291-7.311 3.815-14.517 5.298-18.225 6.04l-3.603.742v-32h152.584v18.331z" style="fill:var(--color2, #3286aa)"/></symbol><symbol id="icon-BG_2" viewBox="0 0 141 32"><path fill="#3286aa" d="m0 0 7.892 4.6c7.774 5.46 23.558 16.379 39.225 20.019s31.45 0 47.117-1.213c15.666-1.213 31.45 0 39.225.607l7.892.607v7.28H7.892L0 32.001v-32z" style="fill:var(--color2, #3286aa)"/></symbol><symbol id="icon-BG_3" viewBox="0 0 241 32"><path fill="#00356a" d="m0 21.333 10.025-2.37c10.025-2.37 30.074-7.111 50.123-9.481s40.099-2.37 60.148 0c20.049 2.37 40.099 7.111 60.148 5.926s40.099-8.296 50.123-11.852L240.592 0v32H0V21.333z" style="fill:var(--color3, #00356a)"/></symbol><symbol id="icon-BG_4" viewBox="0 0 213 32"><path fill="#00356a" d="m0 0 8.874 1.778c8.874 1.778 26.623 5.333 44.372 9.481s35.497 8.889 53.246 10.074c17.749 1.185 35.497-1.185 53.246-2.963s35.497-2.963 44.372-3.556l8.874-.593v17.778H0v-32z" style="fill:var(--color3, #00356a)"/></symbol><symbol id="icon-ic_arrow_rotate" viewBox="0 0 75 32"><path fill="#fff" d="M60.109 20.264H14.89v11.732L-.001 15.999l14.891-16v11.732h45.219V-.001l14.891 16-14.891 16V20.263z" style="fill:var(--color1, #fff)"/></symbol><symbol id="icon-BG_5" viewBox="0 0 91 32"><path fill="#3286aa" d="m0 0 1.663 3.2c1.663 3.2 5.065 9.6 8.391 11.733 3.402 2.133 6.728 0 10.129 1.6 3.326 1.6 6.728 6.933 10.054 8.533s6.728-.533 10.054-.533c3.402 0 6.728 2.133 10.129 1.067 3.326-1.067 6.728-5.333 10.054-4.8s6.728 5.867 10.054 6.933c3.402 1.067 6.728-2.133 10.129-4.8 3.326-2.667 6.728-4.8 8.391-5.867l1.663-1.067v16H0v-32z" style="fill:var(--color2, #3286aa)"/></symbol><symbol id="icon-ic_logo" viewBox="0 0 33 32"><path fill="#fff" d="M16.725 0C7.685 0 .351 7.167.351 16s7.334 16 16.374 16 16.374-7.167 16.374-16S25.765 0 16.725 0zM1.368 16c-.001-1.971.396-3.923 1.167-5.744S4.438 6.78 5.864 5.387c1.426-1.394 3.12-2.499 4.983-3.253S14.708.993 16.725.993c1.756 0 3.426.303 4.994.824L13.16 18.573 2.088 20.541c-.478-1.469-.72-3-.72-4.541zm15.357 15.008c-6.818 0-12.604-4.359-14.6-10.364h10.692l9.659 9.269a15.848 15.848 0 0 1-5.751 1.093v.001zm5.768-1.111a2.96 2.96 0 0 0 .861-2.087c0-.943-.448-1.8-1.153-2.339l-6.457-4.828h15.581c-.698 2.076-1.849 3.979-3.375 5.577s-3.387 2.852-5.458 3.677zm7.042-10.785h-3.684l.276.387h1.255l.639.757h-6.94c0-1.345-1.119-2.456-2.513-2.456-.136 0-.276.017-.396.033l-2.497.371 7.368-11.979a2.968 2.968 0 0 0 .449-1.581 3.119 3.119 0 0 0-1.706-2.793C27.779 3.887 32.084 9.438 32.084 16c0 1.48-.224 2.911-.637 4.256-.39-.023-.768-.14-1.102-.339s-.611-.476-.81-.805z" style="fill:var(--color1, #fff)"/></symbol></defs></svg>