<svg aria-hidden="true" style="position: absolute; width: 0; height: 0; overflow: hidden;" version="1.1" xmlns="http://www.w3.org/2000/svg" xmlns:xlink="http://www.w3.org/1999/xlink">
<defs>
<symbol id="icon-ic_email" viewBox="0 0 32 32">
<path  d="M26.667 5.333h-21.333c-1.467 0-2.653 1.2-2.653 2.667l-0.013 16c0 1.467 1.2 2.667 2.667 2.667h21.333c1.467 0 2.667-1.2 2.667-2.667v-16c0-1.467-1.2-2.667-2.667-2.667zM26.667 10.667l-10.667 6.667-10.667-6.667v-2.667l10.667 6.667 10.667-6.667v2.667z"></path>
</symbol>
<symbol id="icon-ic_telegram" viewBox="0 0 32 32">
<path  d="M16 2.667c-7.36 0-13.333 5.973-13.333 13.333s5.973 13.333 13.333 13.333c7.36 0 13.333-5.973 13.333-13.333s-5.973-13.333-13.333-13.333zM22.187 11.733c-0.2 2.107-1.067 7.227-1.507 9.587-0.187 1-0.56 1.333-0.907 1.373-0.773 0.067-1.36-0.507-2.107-1-1.173-0.773-1.84-1.253-2.973-2-1.32-0.867-0.467-1.347 0.293-2.12 0.2-0.2 3.613-3.307 3.68-3.587 0.009-0.042 0.008-0.086-0.004-0.128s-0.033-0.080-0.063-0.112c-0.080-0.067-0.187-0.040-0.28-0.027-0.12 0.027-1.987 1.267-5.627 3.72-0.533 0.36-1.013 0.547-1.44 0.533-0.48-0.013-1.387-0.267-2.067-0.493-0.84-0.267-1.493-0.413-1.44-0.88 0.027-0.24 0.36-0.48 0.987-0.733 3.893-1.693 6.48-2.813 7.773-3.347 3.707-1.547 4.467-1.813 4.973-1.813 0.107 0 0.36 0.027 0.52 0.16 0.133 0.107 0.173 0.253 0.187 0.36-0.013 0.080 0.013 0.32 0 0.507z"></path>
</symbol>
<symbol id="icon-icon_outline_ticket" viewBox="0 0 32 32">
<path stroke-linejoin="round" stroke-linecap="round" stroke-miterlimit="4" stroke-width="2.0645" d="M6 10.667l16.667-6.667 2.667 6.667M2.667 10.667h26.667v4c-2 0-4 1.333-4 3.667s2 4.333 4 4.333v4h-26.667v-4c2 0 4-1.333 4-4s-2-4-4-4v-4z"></path>
<path stroke-linejoin="miter" stroke-linecap="round" stroke-miterlimit="4" stroke-width="2.0645" d="M11.333 16.923h4M11.333 20.923h9.333"></path>
</symbol>
<symbol id="icon-ic_googlemaps" viewBox="0 0 32 32">
<path  d="M26.036 6.399c1.616 3.477 1.249 7.571-0.54 10.897-1.468 2.729-3.659 4.987-5.464 7.485-0.825 1.144-1.659 2.333-2.225 3.636-0.188 0.433-0.351 0.877-0.511 1.323-0.161 0.444-0.299 0.897-0.453 1.344-0.145 0.419-0.315 0.912-0.836 0.916h-0.009c-0.621-0.001-0.772-0.707-0.927-1.183-0.379-1.165-0.775-2.284-1.359-3.367-0.68-1.259-1.527-2.423-2.387-3.561l14.711-17.491zM11.393 10.273l-5.279 6.276c0.965 2.053 2.428 3.817 3.828 5.573 0.329 0.413 0.659 0.829 0.983 1.248l6.645-7.9-0.039 0.013c-2.321 0.801-4.921-0.388-5.856-2.649-0.128-0.307-0.221-0.627-0.279-0.955-0.084-0.583-0.103-1.015-0.005-1.597l0.001-0.009zM7.323 4.199l-0.004 0.005c-2.596 3.288-3.041 7.84-1.489 11.693l6.38-7.585-0.077-0.067-4.809-4.047zM19.548 0.581l-5.117 6.084c0.012-0.005 0.024-0.009 0.036-0.013 2.133-0.735 4.537 0.2 5.627 2.168 0.235 0.425 0.431 0.911 0.503 1.393 0.091 0.595 0.113 1.031 0.016 1.627l-0.004 0.021 5.115-6.081c-1.337-2.438-3.534-4.29-6.163-5.195l-0.012-0.004zM12.621 7.824l6.261-7.444-0.063-0.016c-0.927-0.244-1.881-0.366-2.839-0.364-1.551 0.015-3.083 0.35-4.498 0.984s-2.684 1.555-3.727 2.704l-0.021 0.024 4.887 4.112z"></path>
</symbol>
<symbol id="icon-ic_mobile" viewBox="0 0 32 32">
<path  d="M5.333 1.333h21.333v29.333h-21.333v-29.333zM8 4v24h16v-24h-16zM14.667 22.667h2.672v2.672h-2.672v-2.672z"></path>
</symbol>
<symbol id="icon-ic_user" viewBox="0 0 32 32">
<path d="M16 0c2.122 0 4.157 0.843 5.657 2.343s2.343 3.535 2.343 5.657c0 2.122-0.843 4.157-2.343 5.657s-3.535 2.343-5.657 2.343c-2.122 0-4.157-0.843-5.657-2.343s-2.343-3.535-2.343-5.657c0-2.122 0.843-4.157 2.343-5.657s3.535-2.343 5.657-2.343zM16 20c8.84 0 16 3.58 16 8v4h-32v-4c0-4.42 7.16-8 16-8z"></path>
</symbol>
<symbol id="icon-ic_facebook" viewBox="0 0 32 32">
<path  d="M32 16.040c0-8.854-7.168-16.040-16-16.040s-16 7.186-16 16.040c0 7.763 5.504 14.228 12.8 15.719v-10.907h-3.2v-4.812h3.2v-4.010c0-3.096 2.512-5.614 5.6-5.614h4v4.812h-3.2c-0.88 0-1.6 0.722-1.6 1.604v3.208h4.8v4.812h-4.8v11.148c8.080-0.802 14.4-7.635 14.4-15.96z"></path>
</symbol>
<symbol id="icon-ic_arrow_swap" viewBox="0 0 32 32">
<path  d="M0 22.944l7.661-9.055v6.64h24.339v4.83h-24.339v6.64l-7.661-9.056zM24.339 11.472h-24.339v-4.832h24.339v-6.64l7.661 9.055-7.661 9.055v-6.637z"></path>
</symbol>
<symbol id="icon-ic_arrow_right" viewBox="0 0 55 32">
<path d="M0 22.122v-12.245h27.765v-9.878l27.21 16-27.21 16v-9.878h-27.765z"></path>
</symbol>
<symbol id="icon-BG_1" viewBox="0 0 152 32">
<path fill="#3286aa" style="fill: var(--color2, #3286aa)" d="M152.477 18.331l-3.603-2.331c-3.709-2.225-10.914-6.887-18.225-9.854-7.205-3.073-14.517-4.662-21.722-3.815-7.311 0.742-14.623 3.815-21.828 6.040-7.311 2.331-14.517 3.815-21.828 3.815-7.205 0-14.517-1.483-21.828 0.742-7.205 2.331-14.517 8.477-21.722 12.291-7.311 3.815-14.517 5.298-18.225 6.040l-3.603 0.742v-32h3.603c3.709 0 10.914 0 18.225 0 7.205 0 14.517 0 21.722 0 7.311 0 14.623 0 21.828 0 7.311 0 14.517 0 21.828 0 7.205 0 14.517 0 21.828 0 7.205 0 14.517 0 21.722 0 7.311 0 14.517 0 18.225 0h3.603v18.331z"></path>
</symbol>
<symbol id="icon-BG_2" viewBox="0 0 141 32">
<path fill="#3286aa" style="fill: var(--color2, #3286aa)" d="M0 0l7.892 4.6c7.774 5.46 23.558 16.379 39.225 20.019s31.45 0 47.117-1.213c15.666-1.213 31.45 0 39.225 0.607l7.892 0.607v7.28h-7.892c-7.774 0-23.558 0-39.225 0s-31.45 0-47.117 0c-15.666 0-31.45 0-39.225 0l-7.892 0.101v-32z"></path>
</symbol>
<symbol id="icon-BG_3" viewBox="0 0 241 32">
<path fill="#00356a" style="fill: var(--color3, #00356a)" d="M0 21.333l10.025-2.37c10.025-2.37 30.074-7.111 50.123-9.481s40.099-2.37 60.148 0c20.049 2.37 40.099 7.111 60.148 5.926s40.099-8.296 50.123-11.852l10.025-3.556v32h-10.025c-10.025 0-30.074 0-50.123 0s-40.099 0-60.148 0c-20.049 0-40.099 0-60.148 0s-40.099 0-50.123 0h-10.025v-10.667z"></path>
</symbol>
<symbol id="icon-BG_4" viewBox="0 0 213 32">
<path fill="#00356a" style="fill: var(--color3, #00356a)" d="M0 0l8.874 1.778c8.874 1.778 26.623 5.333 44.372 9.481s35.497 8.889 53.246 10.074c17.749 1.185 35.497-1.185 53.246-2.963s35.497-2.963 44.372-3.556l8.874-0.593v17.778h-8.874c-8.874 0-26.623 0-44.372 0s-35.497 0-53.246 0c-17.749 0-35.497 0-53.246 0s-35.497 0-44.372 0h-8.874v-32z"></path>
</symbol>
<symbol id="icon-ic_arrow_rotate" viewBox="0 0 75 32">
<path  d="M60.109 20.264h-45.219v11.732l-14.891-15.997 14.891-16v11.732h45.219v-11.732l14.891 16-14.891 16v-11.736z"></path>
</symbol>
<symbol id="icon-BG_5" viewBox="0 0 91 32">
<path fill="#3286aa" style="fill: var(--color2, #3286aa)" d="M0 0l1.663 3.2c1.663 3.2 5.065 9.6 8.391 11.733 3.402 2.133 6.728 0 10.129 1.6 3.326 1.6 6.728 6.933 10.054 8.533s6.728-0.533 10.054-0.533c3.402 0 6.728 2.133 10.129 1.067 3.326-1.067 6.728-5.333 10.054-4.8s6.728 5.867 10.054 6.933c3.402 1.067 6.728-2.133 10.129-4.8 3.326-2.667 6.728-4.8 8.391-5.867l1.663-1.067v16h-1.663c-1.663 0-5.065 0-8.391 0-3.402 0-6.728 0-10.129 0-3.326 0-6.728 0-10.054 0s-6.728 0-10.054 0c-3.402 0-6.728 0-10.129 0-3.326 0-6.728 0-10.054 0s-6.728 0-10.054 0c-3.402 0-6.728 0-10.129 0-3.326 0-6.728 0-8.391 0h-1.663v-32z"></path>
</symbol>
<symbol id="icon-ic_logo" viewBox="0 0 33 32">
<path d="M16.725 0c-9.040 0-16.374 7.167-16.374 16s7.334 16 16.374 16c9.040 0 16.374-7.167 16.374-16s-7.334-16-16.374-16zM1.368 16c-0.001-1.971 0.396-3.923 1.167-5.744s1.903-3.476 3.329-4.869c1.426-1.394 3.12-2.499 4.983-3.253s3.861-1.141 5.878-1.141c1.756 0 3.426 0.303 4.994 0.824l-8.559 16.756-11.072 1.968c-0.478-1.469-0.72-3-0.72-4.541zM16.725 31.008c-6.818 0-12.604-4.359-14.6-10.364h10.692l9.659 9.269c-1.774 0.691-3.72 1.093-5.751 1.093v0.001zM22.493 29.897c0.554-0.56 0.862-1.308 0.861-2.087 0-0.943-0.448-1.8-1.153-2.339l-6.457-4.828h15.581c-0.698 2.076-1.849 3.979-3.375 5.577s-3.387 2.852-5.458 3.677zM29.535 19.112h-3.684l0.276 0.387h1.255l0.639 0.757h-6.94c0-1.345-1.119-2.456-2.513-2.456-0.136 0-0.276 0.017-0.396 0.033l-2.497 0.371 7.368-11.979c0.293-0.471 0.449-1.009 0.449-1.581 0-1.212-0.689-2.288-1.706-2.793 5.993 2.036 10.298 7.587 10.298 14.149 0 1.48-0.224 2.911-0.637 4.256-0.39-0.023-0.768-0.14-1.102-0.339s-0.611-0.476-0.81-0.805z"></path>
</symbol>
</defs>
</svg>
